<svg id="Layer_1" enable-background="new 0 0 512 512" viewBox="0 0 512 512" xmlns="http://www.w3.org/2000/svg" xmlns:xlink="http://www.w3.org/1999/xlink" width="300" height="300" version="1.1" xmlns:svgjs="http://svgjs.dev/svgjs"><g transform="matrix(1,0,0,1,0,0)"><circle cx="256" cy="256" fill="url(#SVGID_1_)" r="256" data-original-color="SVGID_1_" stroke="none" stroke-opacity="1"/><g><g><g><g id="XMLID_1_" fill="#fffffe"><path d="m370.3 155.5c12.3 12.3 12.3 32.2 0 44.5l-50.9 50.8-50.6-50.8c-12.3-12.2-12.3-32.2-.1-44.4 6.3-5.9 14.2-9.1 22.4-9.2 8.5 0 16.5 3.3 22.3 9.1l3.8 3.9c.7.7 1.4 1 2.4 1 .9 0 1.7-.3 2.4-1l3.8-3.8c6.2-5.9 14.2-9.2 22.3-9.2 8.5 0 16.4 3.2 22.2 9.1zm-41.1 37.5c1.8 0 3.3-1.5 3.3-3.3 0-6-4.1-11.1-9.6-12.5v-3c0-1.8-1.5-3.3-3.3-3.3s-3.3 1.5-3.3 3.3v3.1c-5.5 1.5-9.5 6.5-9.5 12.5 0 7.2 5.8 12.9 12.9 12.9 3.5 0 6.3 2.7 6.3 6.3 0 3.3-2.5 6.1-5.9 6.3-.1 0-.3-.1-.5-.1s-.3 0-.4 0c-3.2-.3-5.8-2.9-5.8-6.3 0-1.8-1.5-3.3-3.3-3.3s-3.3 1.5-3.3 3.3c0 6 4 11 9.6 12.5v3c0 1.8 1.5 3.3 3.3 3.3s3.3-1.5 3.3-3.3v-3c5.5-1.5 9.6-6.5 9.6-12.5 0-7.2-5.8-12.9-12.9-12.9-3.5 0-6.3-2.8-6.3-6.3 0-3.3 2.6-6 5.8-6.3.1 0 .3.1.5.1.1 0 .3 0 .5-.1 3.3.2 5.8 2.9 5.8 6.3-.2 1.8 1.3 3.3 3.2 3.3z" fill="#fffffe" fill-opacity="1" data-original-color="#fffffeff" stroke="none" stroke-opacity="1"/><path d="m181.9 351.3v.1c-.1.1-.1.1-.1.1 0 .1-.1.1-.1.1l-30 14.1c-.1 0-.1 0-.1 0-.1-.1-.1-.1-.1-.1-.1 0-.1-.1-.1-.1l-35.5-75.7c0-.1 0-.2.1-.3l30-14.1h.1c.1.1.1.1.1.1l3.4 7.4c.1.3.3.7.5 1l27.9 59.3c.1.1.1.3.2.5zm-32.6-52.1c0-5.9-4.8-10.6-10.5-10.6-5.9 0-10.6 4.7-10.6 10.6s4.8 10.5 10.6 10.5 10.5-4.7 10.5-10.5z" fill="#fffffe" fill-opacity="1" data-original-color="#fffffeff" stroke="none" stroke-opacity="1"/><path d="m142.7 299.2c0 2.2-1.7 3.9-3.9 3.9s-3.9-1.7-3.9-3.9 1.8-3.9 3.9-3.9 3.9 1.7 3.9 3.9z" fill="#fffffe" fill-opacity="1" data-original-color="#fffffeff" stroke="none" stroke-opacity="1"/><path d="m394.7 276.1c1.7 3.8 1.8 8.1.3 12s-4.4 7-8.3 8.6l-84.4 36.5c-12.9 5.6-27.3 6.3-40.8 2.2l-18.6-5.8c-14.2-4.4-29.6-3.8-43.4 1.6l-16.7 6.6-25.7-54.9c49.6-40.5 112.4-22.9 137.3-13.3 5.4 2 8.6 7.5 7.8 13.2-.1.2-.1.5-.1.7-.6 3.2-2.5 6-5.2 7.9-2.8 1.9-6.2 2.5-9.5 1.8l-37.7-8.2c-1.8-.4-3.5.8-4 2.5-.4 1.8.8 3.5 2.5 4l37.7 8.3c1.4.3 2.7.4 4.1.4 3.8 0 7.4-1.1 10.6-3.3 3.7-2.5 6.4-6.1 7.6-10.4l68.3-18.8c7.4-2.1 15.1 1.4 18.2 8.4z" fill="#fffffe" fill-opacity="1" data-original-color="#fffffeff" stroke="none" stroke-opacity="1"/></g></g></g></g></g><defs><linearGradient id="SVGID_1_"><stop stop-opacity="1" stop-color="#7ce000" offset="0"/><stop stop-opacity="1" stop-color="#24bce3" offset="1"/></linearGradient></defs></svg>